<?xml version="1.0" encoding="UTF-8" standalone="no"?><svg xmlns="http://www.w3.org/2000/svg" xmlns:xlink="http://www.w3.org/1999/xlink" contentStyleType="text/css" height="297px" preserveAspectRatio="none" style="width:391px;height:297px;background:#FFFFFF;" version="1.1" viewBox="0 0 391 297" width="391px" zoomAndPan="magnify"><defs/><g><!--MD5=[96b47cf3ec7d4ea65bf687aec5a6681a]
class algoritmo_genetico--><g id="elem_algoritmo_genetico"><rect codeLine="2" fill="#F1F1F1" height="276.9219" id="algoritmo_genetico" rx="2.5" ry="2.5" style="stroke:#181818;stroke-width:0.5;" width="370" x="7" y="7"/><ellipse cx="127.75" cy="23" fill="#ADD1B2" rx="11" ry="11" style="stroke:#181818;stroke-width:1.0;"/><path d="M130.5156,18.875 Q130.6719,18.6563 130.8594,18.5469 Q131.0469,18.4375 131.2656,18.4375 Q131.6406,18.4375 131.875,18.7031 Q132.1094,18.9531 132.1094,19.5625 L132.1094,21.0156 Q132.1094,21.625 131.875,21.8906 Q131.6406,22.1563 131.2656,22.1563 Q130.9219,22.1563 130.7188,21.9531 Q130.5156,21.7656 130.4063,21.25 Q130.3594,20.8906 130.1719,20.7031 Q129.8438,20.3281 129.2344,20.1094 Q128.625,19.8906 128,19.8906 Q127.2344,19.8906 126.5938,20.2188 Q125.9688,20.5469 125.4688,21.2969 Q124.9844,22.0469 124.9844,23.0781 L124.9844,24.1719 Q124.9844,25.4063 125.875,26.2344 Q126.7656,27.0469 128.3594,27.0469 Q129.2969,27.0469 129.9531,26.7969 Q130.3438,26.6406 130.7656,26.2031 Q131.0313,25.9375 131.1719,25.8594 Q131.3281,25.7813 131.5313,25.7813 Q131.8594,25.7813 132.1094,26.0469 Q132.375,26.2969 132.375,26.6406 Q132.375,26.9844 132.0313,27.3906 Q131.5313,27.9688 130.7344,28.2969 Q129.6563,28.75 128.3594,28.75 Q126.8438,28.75 125.6406,28.125 Q124.6563,27.625 123.9688,26.5625 Q123.2813,25.4844 123.2813,24.2031 L123.2813,23.0469 Q123.2813,21.7188 123.8906,20.5781 Q124.5156,19.4219 125.6094,18.8125 Q126.7031,18.1875 127.9375,18.1875 Q128.6719,18.1875 129.3125,18.3594 Q129.9688,18.5156 130.5156,18.875 Z " fill="#000000"/><text fill="#000000" font-family="sans-serif" font-size="14" lengthAdjust="spacing" textLength="120" x="148.25" y="28.7285">algoritmo_genetico</text><line style="stroke:#181818;stroke-width:0.5;" x1="8" x2="376" y1="39" y2="39"/><ellipse cx="18" cy="53.3047" fill="none" rx="3" ry="3" style="stroke:#038048;stroke-width:1.0;"/><text fill="#000000" font-family="sans-serif" font-size="14" lengthAdjust="spacing" textLength="194" x="27" y="57.5332">ELEMENTOS_POBLACION: int</text><ellipse cx="18" cy="70.9141" fill="none" rx="3" ry="3" style="stroke:#038048;stroke-width:1.0;"/><text fill="#000000" font-family="sans-serif" font-size="14" lengthAdjust="spacing" textLength="150" x="27" y="75.1426">MAX_ITERACIONES: int</text><ellipse cx="18" cy="88.5234" fill="none" rx="3" ry="3" style="stroke:#038048;stroke-width:1.0;"/><text fill="#000000" font-family="sans-serif" font-size="14" lengthAdjust="spacing" textLength="107" x="27" y="92.752">NUM_GENES: int</text><ellipse cx="18" cy="106.1328" fill="none" rx="3" ry="3" style="stroke:#038048;stroke-width:1.0;"/><text fill="#000000" font-family="sans-serif" font-size="14" lengthAdjust="spacing" textLength="87" x="27" y="110.3613">CODIGO: int[]</text><ellipse cx="18" cy="123.7422" fill="none" rx="3" ry="3" style="stroke:#038048;stroke-width:1.0;"/><text fill="#000000" font-family="sans-serif" font-size="14" lengthAdjust="spacing" textLength="152" x="27" y="127.9707">LON_CROMOSOMA: int</text><ellipse cx="18" cy="141.3516" fill="none" rx="3" ry="3" style="stroke:#038048;stroke-width:1.0;"/><text fill="#000000" font-family="sans-serif" font-size="14" lengthAdjust="spacing" textLength="169" x="27" y="145.5801">PROB_MUTACION: double</text><line style="stroke:#181818;stroke-width:0.5;" x1="8" x2="376" y1="152.6563" y2="152.6563"/><ellipse cx="18" cy="166.9609" fill="#84BE84" rx="3" ry="3" style="stroke:#038048;stroke-width:1.0;"/><text fill="#000000" font-family="sans-serif" font-size="14" lengthAdjust="spacing" textLength="205" x="27" y="171.1895">primeraGeneracion() : List&lt;int[]&gt;</text><ellipse cx="18" cy="184.5703" fill="#84BE84" rx="3" ry="3" style="stroke:#038048;stroke-width:1.0;"/><text fill="#000000" font-family="sans-serif" font-size="14" lengthAdjust="spacing" textLength="264" x="27" y="188.7988">evaluarCromosoma(cromosoma: int[]) : int</text><ellipse cx="18" cy="202.1797" fill="#84BE84" rx="3" ry="3" style="stroke:#038048;stroke-width:1.0;"/><text fill="#000000" font-family="sans-serif" font-size="14" lengthAdjust="spacing" textLength="325" x="27" y="206.4082">ordenarPoblacion(poblacion: List&lt;int[]&gt;) : List&lt;int[]&gt;</text><ellipse cx="18" cy="219.7891" fill="#84BE84" rx="3" ry="3" style="stroke:#038048;stroke-width:1.0;"/><text fill="#000000" font-family="sans-serif" font-size="14" lengthAdjust="spacing" textLength="344" x="27" y="224.0176">siguienteGeneracion(poblacion: List&lt;int[]&gt;) : List&lt;int[]&gt;</text><ellipse cx="18" cy="237.3984" fill="#84BE84" rx="3" ry="3" style="stroke:#038048;stroke-width:1.0;"/><text fill="#000000" font-family="sans-serif" font-size="14" lengthAdjust="spacing" textLength="231" x="27" y="241.627">cruzar(padre: int[], madre: int[]) : int[]</text><ellipse cx="18" cy="255.0078" fill="#84BE84" rx="3" ry="3" style="stroke:#038048;stroke-width:1.0;"/><text fill="#000000" font-family="sans-serif" font-size="14" lengthAdjust="spacing" textLength="270" x="27" y="259.2363">mutacion(poblacion: List&lt;int[]&gt;) : List&lt;int[]&gt;</text><ellipse cx="18" cy="272.6172" fill="#84BE84" rx="3" ry="3" style="stroke:#038048;stroke-width:1.0;"/><text fill="#000000" font-family="sans-serif" font-size="14" lengthAdjust="spacing" textLength="165" x="27" y="276.8457">algoritmo_genetico() : int[]</text></g><!--MD5=[a4cbb46649905e640b8708d7df44e538]
@startuml

class algoritmo_genetico {
  + ELEMENTOS_POBLACION: int
  + MAX_ITERACIONES: int
  + NUM_GENES: int
  + CODIGO: int[]
  + LON_CROMOSOMA: int
  + PROB_MUTACION: double
  + primeraGeneracion() : List<int[]>
  + evaluarCromosoma(cromosoma: int[]) : int
  + ordenarPoblacion(poblacion: List<int[]>) : List<int[]>
  + siguienteGeneracion(poblacion: List<int[]>) : List<int[]>
  + cruzar(padre: int[], madre: int[]) : int[]
  + mutacion(poblacion: List<int[]>) : List<int[]>
  + algoritmo_genetico() : int[]
}

@enduml

PlantUML version 1.2022.7(Mon Aug 22 19:01:30 CEST 2022)
(GPL source distribution)
Java Runtime: Java(TM) SE Runtime Environment
JVM: Java HotSpot(TM) 64-Bit Server VM
Default Encoding: UTF-8
Language: es
Country: ES
--></g></svg>