<?xml version="1.0" encoding="UTF-8" standalone="no"?><svg xmlns="http://www.w3.org/2000/svg" xmlns:xlink="http://www.w3.org/1999/xlink" contentStyleType="text/css" height="244px" preserveAspectRatio="none" style="width:339px;height:244px;background:#FFFFFF;" version="1.1" viewBox="0 0 339 244" width="339px" zoomAndPan="magnify"><defs/><g><!--MD5=[2456f3a6f5aa4d75f9c9b6fd42c52dfa]
entity Main--><g id="elem_Main"><ellipse cx="21" cy="14" fill="#F1F1F1" rx="8" ry="8" style="stroke:#181818;stroke-width:0.5;"/><path d="M21,22 L21,49 M8,30 L34,30 M21,49 L8,64 M21,49 L34,64 " fill="none" style="stroke:#181818;stroke-width:0.5;"/><text fill="#000000" font-family="sans-serif" font-size="14" lengthAdjust="spacing" textLength="30" x="6" y="80.0332">Main</text></g><!--MD5=[de1ee54e19dc1653a365126d96e927dc]
entity algoritmo_genetico--><g id="elem_algoritmo_genetico"><ellipse cx="182" cy="14" fill="#F1F1F1" rx="8" ry="8" style="stroke:#181818;stroke-width:0.5;"/><path d="M182,22 L182,49 M169,30 L195,30 M182,49 L169,64 M182,49 L195,64 " fill="none" style="stroke:#181818;stroke-width:0.5;"/><text fill="#000000" font-family="sans-serif" font-size="14" lengthAdjust="spacing" textLength="120" x="122" y="80.0332">algoritmo_genetico</text></g><!--MD5=[4774fa10149d9cf2f4971c9b7ee8a43b]
entity primeraGeneracion--><g id="elem_primeraGeneracion"><ellipse cx="181" cy="170" fill="#F1F1F1" rx="8" ry="8" style="stroke:#181818;stroke-width:0.5;"/><path d="M181,178 L181,205 M168,186 L194,186 M181,205 L168,220 M181,205 L194,220 " fill="none" style="stroke:#181818;stroke-width:0.5;"/><text fill="#000000" font-family="sans-serif" font-size="14" lengthAdjust="spacing" textLength="122" x="120" y="236.0332">primeraGeneracion</text></g><!--MD5=[0a16bd51ab61b0ea1c65783a56fe2560]
link Main to algoritmo_genetico--><g id="link_Main_algoritmo_genetico"><path d="M36.15,44.5 C54.65,44.5 87.14,44.5 116.77,44.5 " fill="none" id="Main-to-algoritmo_genetico" style="stroke:#181818;stroke-width:1.0;"/><polygon fill="#181818" points="121.88,44.5,112.88,40.5,116.88,44.5,112.88,48.5,121.88,44.5" style="stroke:#181818;stroke-width:1.0;"/><text fill="#000000" font-family="sans-serif" font-size="13" lengthAdjust="spacing" textLength="49" x="54.5" y="37.9951">Llamada</text></g><!--MD5=[3ec32887d6d1d87cfc39c1a99ec72725]
link algoritmo_genetico to primeraGeneracion--><g id="link_algoritmo_genetico_primeraGeneracion"><path d="M148.18,83.83 C141.95,92.98 136.35,103.11 133,113.5 C128.23,128.27 132.88,143.37 140.86,156.72 " fill="none" id="algoritmo_genetico-to-primeraGeneracion" style="stroke:#181818;stroke-width:1.0;"/><polygon fill="#181818" points="143.69,161.17,142.2264,151.4305,141.0028,156.9535,135.4799,155.7299,143.69,161.17" style="stroke:#181818;stroke-width:1.0;"/><text fill="#000000" font-family="sans-serif" font-size="13" lengthAdjust="spacing" textLength="49" x="134" y="127.9951">Llamada</text></g><!--MD5=[b22c21ecc28daea3fe9d350bbf171059]
link primeraGeneracion to algoritmo_genetico--><g id="link_primeraGeneracion_algoritmo_genetico"><path d="M185.61,161.43 C186.6,151.69 187.5,141.22 188,131.5 C188.81,115.81 187.94,98.52 186.64,83.58 " fill="none" id="primeraGeneracion-algoritmo_genetico" style="stroke:#181818;stroke-width:1.0;"/><text fill="#000000" font-family="sans-serif" font-size="13" lengthAdjust="spacing" textLength="141" x="190" y="127.9951">Retorna población inicial</text></g><!--MD5=[230ab5a5b4a4f4851f6600f5b32f20d2]
@startuml

actor Main

Main -> algoritmo_genetico : Llamada

algoritmo_genetico -> primeraGeneracion : Llamada
primeraGeneracion - - algoritmo_genetico : Retorna población inicial

' algoritmo_genetico -> ordenarPoblacion : Llamada
' ordenarPoblacion - - algoritmo_genetico : Retorna población ordenada

' algoritmo_genetico -> siguienteGeneracion : Llamada
' siguienteGeneracion -> cruzar : Llamada
' cruzar - - siguienteGeneracion : Retorna hijo
' siguienteGeneracion - - algoritmo_genetico : Retorna nueva generación

' algoritmo_genetico -> mutacion : Llamada
' mutacion - - algoritmo_genetico : Retorna población con mutaciones

' algoritmo_genetico -> ordenarPoblacion : Llamada
' ordenarPoblacion - - algoritmo_genetico : Retorna población ordenada

' algoritmo_genetico -> evaluarCromosoma : Llamada
' evaluarCromosoma - - algoritmo_genetico : Retorna fitness del mejor individuo

@enduml

@startuml

actor Main

Main -> algoritmo_genetico : Llamada

algoritmo_genetico -> primeraGeneracion : Llamada
primeraGeneracion - - algoritmo_genetico : Retorna población inicial






@enduml

PlantUML version 1.2022.7(Mon Aug 22 19:01:30 CEST 2022)
(GPL source distribution)
Java Runtime: Java(TM) SE Runtime Environment
JVM: Java HotSpot(TM) 64-Bit Server VM
Default Encoding: UTF-8
Language: es
Country: ES
--></g></svg>